<svg width="248" height="59" viewBox="0 0 248 59" fill="none" xmlns="http://www.w3.org/2000/svg">
<path d="M24.5865 59C18.5103 59 13.7217 58.2016 10.2208 56.5649C7.3235 55.2077 5.27126 53.3315 4.06405 51.0162C3.21901 49.3796 2.77637 47.4634 2.77637 45.2679V44.6691H15.3313C15.4118 46.1461 15.9751 47.3836 17.0214 48.3417C18.5505 49.8586 21.2466 50.617 25.1499 50.617H25.5523C29.4153 50.617 32.1114 50.0981 33.721 49.0203C34.8075 48.3017 35.3306 47.184 35.3306 45.6671C35.3306 44.3099 34.7673 43.3119 33.6406 42.6732C32.3126 41.9547 30.0189 41.5555 26.7997 41.3958L21.2466 41.2361C14.8484 40.9966 10.1403 39.7192 7.1223 37.3241C4.54693 35.2483 3.21901 32.5338 3.21901 29.1407V28.6218C3.21901 24.8694 4.54693 22.0352 7.16254 20.0392C10.5025 17.6042 16.0959 16.3667 23.9829 16.3667H25.8742C34.0832 16.3667 39.918 17.684 43.2982 20.3586C45.6724 22.2348 46.8393 24.9492 46.8393 28.4621V29.1407H34.4856C34.3649 28.5419 34.2039 27.9831 33.9625 27.504C33.721 26.9851 33.3186 26.546 32.7553 26.1468C31.1859 25.1089 28.6508 24.59 25.1096 24.59H24.5463C21.0454 24.59 18.5907 24.9093 17.1823 25.548C15.9751 26.1468 15.3715 27.0649 15.3715 28.2625C15.3715 29.4601 15.8947 30.3383 16.9409 30.9371C18.1883 31.6556 20.3613 32.0548 23.4598 32.2145L29.2544 32.454C36.2562 32.7334 41.1655 33.9709 44.0627 36.1664C46.4772 38.0027 47.7246 40.8369 47.7246 44.5494V45.228C47.7246 49.14 46.4772 52.2138 44.0225 54.4093C40.5619 57.4831 34.6063 59.0399 26.2364 59.0399H24.5865V59Z" fill="#1A1C23"/>
<path d="M56.3359 16.8857H94.5238V25.9074H67.7239V32.6537H93.6788V41.9947H67.7239V49.1801H94.8458V58.2815H56.3359V16.8857Z" fill="#1A1C23"/>
<path d="M115.65 58.2815H104.101V16.8857H115.65V33.9311L135.166 16.9257H149.854L127.883 35.8871L150.82 58.3215H135.73L115.65 38.8411V58.2815Z" fill="#1A1C23"/>
<path d="M168.606 58.2815V26.3465H152.47V16.8857H196.251V26.3465H180.115V58.2815H168.606Z" fill="#1A1C23"/>
<path d="M235.606 58.2815L232.185 50.6171H209.651L206.271 58.2815H194.682L213.192 16.8857H228.685L248 58.2815H235.606ZM228.322 42.0745L220.757 25.2288L213.393 42.0745H228.322Z" fill="#1A1C23"/>
<path d="M4.30569 11.0974V2.51488H0V0H11.7099V2.51488H7.40419V11.0575H4.30569V11.0974Z" fill="#1A1C23"/>
<path d="M13.8022 11.0974V0H16.9007V4.11164H23.138V0H26.2365V11.0974H23.138V6.62652H16.9007V11.0974H13.8022Z" fill="#1A1C23"/>
<path d="M28.9727 0H39.1937V2.39513H32.0309V4.19148H38.9924V6.70636H32.0309V8.62246H39.3144V11.0575H28.9727V0Z" fill="#1A1C23"/>
</svg>
