<svg width="129" height="31" viewBox="0 0 129 31" fill="none" xmlns="http://www.w3.org/2000/svg">
<path d="M12.7891 31C9.6285 31 7.13767 30.5805 5.31664 29.7206C3.80958 29.0074 2.74208 28.0216 2.11414 26.8051C1.67458 25.9452 1.44434 24.9384 1.44434 23.7848V23.4702H7.97492C8.01678 24.2463 8.30982 24.8965 8.85404 25.3999C9.64943 26.1969 11.0518 26.5954 13.0822 26.5954H13.2915C15.3009 26.5954 16.7033 26.3227 17.5406 25.7564C18.1057 25.3789 18.3778 24.7916 18.3778 23.9946C18.3778 23.2815 18.0848 22.7571 17.4987 22.4215C16.808 22.044 15.6149 21.8342 13.9404 21.7503L11.0518 21.6664C7.72374 21.5406 5.27478 20.8694 3.70492 19.611C2.36532 18.5203 1.67458 17.094 1.67458 15.3112V15.0386C1.67458 13.067 2.36532 11.5778 3.72585 10.5291C5.46316 9.24966 8.37262 8.59946 12.4752 8.59946H13.4589C17.7289 8.59946 20.764 9.29161 22.5222 10.6969C23.7572 11.6827 24.3642 13.1089 24.3642 14.9547V15.3112H17.9382C17.8755 14.9966 17.7917 14.703 17.6661 14.4513C17.5406 14.1786 17.3312 13.9479 17.0382 13.7382C16.2219 13.1928 14.9032 12.9202 13.0612 12.9202H12.7682C10.9472 12.9202 9.67036 13.088 8.93776 13.4235C8.30982 13.7382 7.99585 14.2206 7.99585 14.8498C7.99585 15.479 8.26796 15.9405 8.81218 16.2551C9.46105 16.6326 10.5913 16.8424 12.2031 16.9262L15.2172 17.0521C18.8592 17.1989 21.4129 17.8491 22.9199 19.0027C24.1758 19.9675 24.8247 21.4567 24.8247 23.4073V23.7639C24.8247 25.8193 24.1758 27.4344 22.899 28.588C21.0989 30.203 18.001 31.021 13.6473 31.021H12.7891V31Z" fill="white"/>
<path d="M29.304 8.87212H49.1678V13.6123H35.2275V17.157H48.7283V22.0649H35.2275V25.8403H49.3353V30.6225H29.304V8.87212Z" fill="white"/>
<path d="M60.1567 30.6224H54.1494V8.87212H60.1567V17.8281L70.3084 8.89309H77.9484L66.5198 18.8559L78.4507 30.6434H70.6015L60.1567 20.408V30.6224Z" fill="white"/>
<path d="M87.7025 30.6225V13.843H79.3091V8.87212H102.082V13.843H93.6889V30.6225H87.7025Z" fill="white"/>
<path d="M122.553 30.6225L120.774 26.5954H109.053L107.294 30.6225H101.266L110.895 8.87212H118.953L129 30.6225H122.553ZM118.765 22.1069L114.83 13.2557L110.999 22.1069H118.765Z" fill="white"/>
<path d="M2.23966 5.83085V1.32138H0V0H6.09103V1.32138H3.85137V5.80988H2.23966V5.83085Z" fill="white"/>
<path d="M7.17944 5.83085V0H8.79116V2.16035H12.0355V0H13.6472V5.83085H12.0355V3.48173H8.79116V5.83085H7.17944Z" fill="white"/>
<path d="M15.0706 0H20.3871V1.25846H16.6613V2.2023H20.2825V3.52368H16.6613V4.53045H20.4499V5.80988H15.0706V0Z" fill="white"/>
</svg>
